<svg width="200" height="200" viewBox="0 0 200 200" fill="none" xmlns="http://www.w3.org/2000/svg">
<g clip-path="url(#clip0_12)">
<rect x="20" y="20" width="160" height="160" fill="url(#dots12)"/>
<path d="M0 100C0 44.7715 44.7715 0 100 0V100H0Z" fill="#010DFF"/>
<path d="M100 100C100 155.228 144.772 200 200 200V100H100Z" fill="#010DFF"/>
<path fill-rule="evenodd" clip-rule="evenodd" d="M200 0H150V50H200V0Z" fill="#E5FA00"/>
<path fill-rule="evenodd" clip-rule="evenodd" d="M50 200H0V150H50V200Z" fill="#E5FA00"/>
</g>
<defs>
  <pattern id="dots12" x="0" y="0" width="16" height="16" patternUnits="userSpaceOnUse">
    <path fill-rule="evenodd" clip-rule="evenodd" d="M12.1 4.69C9.86 5.03 8.37 6.7 8 8.38C8 6.7 6.14 5.03 3.9 4.69C6.14 4.69 8 3.01 8 1C8.37 3.01 9.86 4.69 12.1 4.69Z" fill="black" fill-opacity="0.15"/>
  </pattern>
<clipPath id="clip0_12">
<rect width="200" height="200" fill="white"/>
</clipPath>
</defs>
</svg>
