<svg width="200" height="200" viewBox="0 0 200 200" fill="none" xmlns="http://www.w3.org/2000/svg">
<g clip-path="url(#clip0_1_214)">
<rect x="20" y="20" width="160" height="160" fill="url(#dots)"/>
<path fill-rule="evenodd" clip-rule="evenodd" d="M100 0L200 -4.37114e-06L200 100L100 0Z" fill="#010DFF"/>

<path fill-rule="evenodd" clip-rule="evenodd" d="M154.333 102.244L145.515 130.248L119.633 116.613L133.268 142.495L105.263 151.313L133.268 159.886L119.633 185.768L145.515 172.133L154.333 200.138L162.906 172.133L188.788 185.768L175.153 159.886L203.158 151.313L175.153 142.495L188.788 116.613L162.906 130.248L154.333 102.244Z" fill="#E5FA00"/>
<path fill-rule="evenodd" clip-rule="evenodd" d="M42.6106 0H0V42.1053L42.6106 0V42.1053L85.2632 0H42.6106Z" fill="#010DFF"/>
</g>
<defs>
  <pattern id="dots" x="0" y="0" width="16" height="16" patternUnits="userSpaceOnUse">
    <path fill-rule="evenodd" clip-rule="evenodd" d="M12.1 4.69C9.86 5.03 8.37 6.7 8 8.38C8 6.7 6.14 5.03 3.9 4.69C6.14 4.69 8 3.01 8 1C8.37 3.01 9.86 4.69 12.1 4.69Z" fill="black" fill-opacity="0.15"/>
  </pattern>
<clipPath id="clip0_1_214">
<rect width="200" height="200" fill="white"/>
</clipPath>
</defs>
</svg>
