<svg width="200" height="200" viewBox="0 0 200 200" fill="none" xmlns="http://www.w3.org/2000/svg">
<g clip-path="url(#clip0_11)">
<rect x="20" y="20" width="160" height="160" fill="url(#dots11)"/>
<path fill-rule="evenodd" clip-rule="evenodd" d="M0 0H80V80H0V0ZM20 20H60V60H20V20Z" fill="#010DFF"/>
<path fill-rule="evenodd" clip-rule="evenodd" d="M120 120H200V200H120V120ZM140 140H180V180H140V140Z" fill="#010DFF"/>
<path d="M80 0L200 0V80L80 0Z" fill="#E5FA00"/>
<circle cx="40" cy="160" r="30" fill="#E5FA00"/>
</g>
<defs>
  <pattern id="dots11" x="0" y="0" width="16" height="16" patternUnits="userSpaceOnUse">
    <path fill-rule="evenodd" clip-rule="evenodd" d="M12.1 4.69C9.86 5.03 8.37 6.7 8 8.38C8 6.7 6.14 5.03 3.9 4.69C6.14 4.69 8 3.01 8 1C8.37 3.01 9.86 4.69 12.1 4.69Z" fill="black" fill-opacity="0.15"/>
  </pattern>
<clipPath id="clip0_11">
<rect width="200" height="200" fill="white"/>
</clipPath>
</defs>
</svg>
