<svg width="200" height="200" viewBox="0 0 200 200" fill="none" xmlns="http://www.w3.org/2000/svg">
<g clip-path="url(#clip0_10)">
<rect x="20" y="20" width="160" height="160" fill="url(#dots10)"/>
<path d="M100 0L200 100L100 200L0 100L100 0Z" fill="#010DFF"/>
<path d="M100 50L150 100L100 150L50 100L100 50Z" fill="white"/>
<rect x="0" y="0" width="30" height="30" fill="#E5FA00"/>
<rect x="170" y="170" width="30" height="30" fill="#E5FA00"/>
</g>
<defs>
  <pattern id="dots10" x="0" y="0" width="16" height="16" patternUnits="userSpaceOnUse">
    <path fill-rule="evenodd" clip-rule="evenodd" d="M12.1 4.69C9.86 5.03 8.37 6.7 8 8.38C8 6.7 6.14 5.03 3.9 4.69C6.14 4.69 8 3.01 8 1C8.37 3.01 9.86 4.69 12.1 4.69Z" fill="black" fill-opacity="0.15"/>
  </pattern>
<clipPath id="clip0_10">
<rect width="200" height="200" fill="white"/>
</clipPath>
</defs>
</svg>
